# xmcd
#
# Track frame offsets:
# 150
# 13367
# 26173
# 41416
# 57214
# 73458
# 87144
# 96831
# 113122
# 136842
# 156803
#
# Disc length: 2298 seconds
#
# Revision: 0
# Processed by: cddbd v1.5PL3 Copyright (c) Steve Scherf et al.
# Submitted via: Axialis_AX_CDPlayer 2.6
#
DISCID=9308f80b
DTITLE=Dave van Ronk - The Real
DYEAR=1900
DGENRE=
TTITLE0=Cake walking babies from home
TTITLE1=Ace in the hole
TTITLE2=St. Louis tickle
TTITLE3=I'll had to do it over again
TTITLE4=Whoa buck back
TTITLE5=Sister Kate
TTITLE6=Kansas City Blues
TTITLE7=Green Rocky Road
TTITLE8=See see rider
TTITLE9=Rocks and gravel
TTITLE10=Hesitation blues
EXTD=
EXTT0=
EXTT1=
EXTT2=
EXTT3=
EXTT4=
EXTT5=
EXTT6=
EXTT7=
EXTT8=
EXTT9=
EXTT10=
PLAYORDER=
